<svg id="layer" xmlns="http://www.w3.org/2000/svg" viewBox="0 0 100 98.28"><defs><style>.cls-1{fill:#fff;}.cls-2{fill:#020203;}</style></defs><path class="cls-1" d="M100,.36,99.64,0H.36L0,.32V97.91l.32.37H99.59l.36-.37Z"/><path class="cls-2" d="M86.93,66.68h5.85l.37-.36-3.09-8.26H89.7l-3.09,8.26Zm7.21,4.13H85.57l-.69.37-1.72,4.44-.36.32H79.71l-.36-.32V72.17l7.89-19.92.37-.32h4.45l.36.32L100,71.31V.36L99.64,0H.36L0,.32V97.91l.32.37H99.59l.36-.37v-22H96.87l-.37-.32-1.72-4.44ZM57.74,52.25l.36-.32h11c3.45,0,6.85,1.72,6.85,6.17,0,2.41-1,4.45-3.45,5.18v.32c2.77.68,4.13,2.76,4.13,5.85,0,4.81-3.45,6.54-6.85,6.54H58.1l-.36-.32ZM40.22,46.07l-.37.37H35.72l-.31-.37V32.68H35L29.55,46.07l-.36.37H25.42l-.36-.37-5.5-13.39H19.2V46.07l-.32.37H14.75l-.36-.37V22.7l.36-.32h5.13l.37.32L27.1,39.54h.36l6.9-16.84.32-.32h5.13l.36.32V46.07Zm24.74,0-.37.37H61.51l-.37-.37-1.72-4.44-.68-.32H50.16l-.68.32-1.73,4.44-.31.37H44.35L44,46.07V42.62L51.88,22.7l.37-.32H56.7l.36.32L65,42.62Zm13.75.68C71.13,46.75,67,41.63,67,34.41s4.14-12.35,11.67-12.35c5.49,0,9.26,2.72,9.94,7.22l-.32.36H84.2l-.31-.36c-.69-2-2.41-3.09-5.18-3.09-4.81,0-6.85,3.45-6.85,8.26s2,8.26,6.85,8.26c2.77,0,4.45-1,5.18-3.45l.31-.36h4.13l.32.36C88,44,84.2,46.75,78.71,46.75M57.38,37.13l.36-.32-3.09-8.26h-.36L51.2,36.81l.37.32Zm5.49,18.93-.36.36v4.81l.36.37h5.54a2.51,2.51,0,0,0,2.72-2.77c0-1.73-.68-2.72-2.72-2.72H62.87Zm0,9.58-.36.36v5.49l.36.32h5.54c2.4,0,3.45-1,3.45-3.09s-1-3.08-3.45-3.08Z"/></svg>